<svg width="211" height="27" viewBox="0 0 211 27" fill="none" xmlns="http://www.w3.org/2000/svg">
<path d="M7.19344 26.6407L0 0.359316H1.66101L8.04949 24.164H8.20282L14.4891 0.359316H16.4312L22.7175 24.164H22.8708L29.2593 0.359316H30.9075L23.7141 26.6407H21.8742L15.524 2.99002H15.3835L9.03332 26.6407H7.19344Z" fill="#007AFF"/>
<path d="M42.6279 26.6407V0.359316H57.1936V1.84791H44.225V12.7429H56.4142V14.2315H44.225V25.1521H57.5003V26.6407H42.6279Z" fill="#007AFF"/>
<path d="M70.8114 26.6407V0.359316H79.3081C80.8924 0.359316 82.2298 0.641635 83.3201 1.20627C84.4104 1.77091 85.2366 2.56226 85.7988 3.58032C86.3695 4.59838 86.6549 5.78327 86.6549 7.13498C86.6549 8.19582 86.4845 9.13688 86.1438 9.95818C85.8031 10.7795 85.3261 11.4596 84.7128 11.9986C84.108 12.529 83.3967 12.8969 82.579 13.1022V13.2562C83.4819 13.3246 84.3209 13.6412 85.0961 14.2058C85.8712 14.7619 86.493 15.519 86.9615 16.4772C87.4385 17.4354 87.677 18.5518 87.677 19.8265C87.677 21.1697 87.3874 22.3546 86.8082 23.3812C86.2375 24.3992 85.3814 25.1991 84.24 25.7809C83.0986 26.3541 81.6846 26.6407 79.9981 26.6407H70.8114ZM72.4085 25.1521H79.9981C81.9657 25.1521 83.4776 24.6559 84.5339 23.6635C85.5986 22.6711 86.131 21.3921 86.131 19.8265C86.131 18.7229 85.8712 17.7348 85.3516 16.8622C84.8405 15.9895 84.1293 15.3009 83.2178 14.7961C82.3064 14.2828 81.2502 14.0261 80.0492 14.0261H72.4085V25.1521ZM72.4085 12.5632H79.8575C80.9734 12.5632 81.9189 12.3194 82.694 11.8317C83.4776 11.3441 84.0739 10.6896 84.4828 9.86835C84.9001 9.04705 85.1088 8.13593 85.1088 7.13498C85.1088 5.50951 84.6063 4.22196 83.6012 3.27234C82.596 2.32272 81.165 1.84791 79.3081 1.84791H72.4085V12.5632Z" fill="#007AFF"/>
<path d="M120.895 8.57224H119.259C119.089 7.68251 118.769 6.82272 118.301 5.99287C117.832 5.15447 117.228 4.40162 116.487 3.73432C115.754 3.05846 114.902 2.52377 113.931 2.13023C112.96 1.73669 111.887 1.53992 110.711 1.53992C108.991 1.53992 107.406 2.0019 105.958 2.92586C104.519 3.84126 103.365 5.18869 102.496 6.96816C101.636 8.74762 101.205 10.9249 101.205 13.5C101.205 16.0922 101.636 18.278 102.496 20.0575C103.365 21.837 104.519 23.1844 105.958 24.0998C107.406 25.0067 108.991 25.4601 110.711 25.4601C111.887 25.4601 112.96 25.2676 113.931 24.8826C114.902 24.4891 115.754 23.9587 116.487 23.2914C117.228 22.6155 117.832 21.8584 118.301 21.02C118.769 20.1816 119.089 19.3175 119.259 18.4278H120.895C120.707 19.4886 120.345 20.528 119.809 21.5461C119.281 22.5642 118.582 23.4881 117.713 24.318C116.853 25.1393 115.835 25.7937 114.659 26.2814C113.493 26.7605 112.177 27 110.711 27C108.531 27 106.61 26.4439 104.949 25.3318C103.288 24.211 101.985 22.6369 101.039 20.6093C100.102 18.5817 99.6338 16.212 99.6338 13.5C99.6338 10.788 100.102 8.41825 101.039 6.39069C101.985 4.36312 103.288 2.79325 104.949 1.68108C106.61 0.560361 108.531 0 110.711 0C112.177 0 113.493 0.243822 114.659 0.731465C115.835 1.21055 116.853 1.86074 117.713 2.68203C118.582 3.49477 119.281 4.41017 119.809 5.42823C120.345 6.44629 120.707 7.4943 120.895 8.57224Z" fill="#007AFF"/>
<path d="M134.03 26.6407V0.359316H135.627V12.7429H151.394V0.359316H152.991V26.6407H151.394V14.2315H135.627V26.6407H134.03Z" fill="#007AFF"/>
<path d="M166.545 26.6407H164.858L174.301 0.359316H176.141L185.583 26.6407H183.896L175.284 2.42538H175.157L166.545 26.6407ZM168.934 16.7467H181.507V18.2353H168.934V16.7467Z" fill="#007AFF"/>
<path d="M192.665 1.84791V0.359316H211V1.84791H202.631V26.6407H201.034V1.84791H192.665Z" fill="#007AFF"/>
</svg>
