<svg width="24" height="24" viewBox="0 0 24 24" fill="none" xmlns="http://www.w3.org/2000/svg">
<path d="M12.5 12.0001L15.7143 8.66675M20 12.0001H12.5H20ZM12.5 12.0001L15.7143 15.3334L12.5 12.0001Z" stroke="#5A5A5A" stroke-width="1.5" stroke-linecap="round" stroke-linejoin="round"/>
<path d="M20 5.33333V4.22222C20 3.63285 19.7742 3.06762 19.3724 2.65087C18.9705 2.23413 18.4255 2 17.8571 2H7.14286C6.57454 2 6.02949 2.23413 5.62763 2.65087C5.22576 3.06762 5 3.63285 5 4.22222V19.7778C5 20.3671 5.22576 20.9324 5.62763 21.3491C6.02949 21.7659 6.57454 22 7.14286 22H17.8571C18.4255 22 18.9705 21.7659 19.3724 21.3491C19.7742 20.9324 20 20.3671 20 19.7778V18.6667" stroke="#5A5A5A" stroke-width="1.5" stroke-linecap="round" stroke-linejoin="round"/>
</svg>
